# xmcd
#
# Track frame offsets:
#	150
#	13641
#	37092
#	52944
#	66645
#	85893
#	100722
#	116490
#	129246
#	142086
#	154155
#	166182
#	181120
#	192325
#	205672
#
# Disc length: 3108
#
# Revision: 1
# Processed by: cddbd v1.5.1PL0 Copyright (c) Steve Scherf et al.
# Submitted via: audiograbber 1.80
# Normalized: r0:TDELIM( - )
#
DISCID=c80c220f
DTITLE=Black Story - CD#2 - Soul and R'n'B
DYEAR=1900
DGENRE=
TTITLE0=Sly and the Family Stone - If you want me to stay
TTITLE1=Gil Scott Heron - The bottle
TTITLE2=Al Green - Waiting on you
TTITLE3=Lyn Collins - Think (about it)
TTITLE4=Cymande - The message
TTITLE5=First Choice - Love and Hapiness
TTITLE6=Harold Melvin and The blue notes - Wake up everybody
TTITLE7=The Dixie Cups - Chapel of love
TTITLE8=Ray Charles - Heart breaker
TTITLE9=The Shirelles - Will you love me tomorrow
TTITLE10=Patti Labelle and the Bluebells - Tear after Tear
TTITLE11=The miracles - The tracks of my tears
TTITLE12=Freda Payne - Unhooked generation
TTITLE13=Florence Miller - The groove I'm in
TTITLE14=Lonnie Liston Smith - Expansions
EXTD=
EXTT0=
EXTT1=
EXTT2=
EXTT3=
EXTT4=
EXTT5=
EXTT6=
EXTT7=
EXTT8=
EXTT9=
EXTT10=
EXTT11=
EXTT12=
EXTT13=
EXTT14=
PLAYORDER=
